<svg xmlns="http://www.w3.org/2000/svg" xmlns:xlink="http://www.w3.org/1999/xlink" viewBox="0,0,256,256" width="48px" height="48px"><g fill="none" fill-rule="nonzero" stroke="none" stroke-width="1" stroke-linecap="butt" stroke-linejoin="miter" stroke-miterlimit="10" stroke-dasharray="" stroke-dashoffset="0" font-family="none" font-weight="none" font-size="none" text-anchor="none" style="mix-blend-mode: normal"><g transform="scale(2,2)"><path transform="translate(-26.51038,64.00187) rotate(-45.001)" d="M64,9c-30.37566,0 -55,24.62434 -55,55c0,30.37566 24.62434,55 55,55c30.37566,0 55,-24.62434 55,-55c0,-30.37566 -24.62434,-55 -55,-55z" fill="#ffffff"></path><path d="M64,122c-14.9,0 -29.7,-5.7 -41,-17c-22.6,-22.6 -22.6,-59.4 0,-82c22.6,-22.6 59.4,-22.6 82,0v0c22.6,22.6 22.6,59.4 0,82c-11.3,11.3 -26.1,17 -41,17zM64,12c-13.3,0 -26.6,5.1 -36.8,15.2c-20.2,20.3 -20.2,53.3 0,73.6c20.3,20.3 53.3,20.3 73.5,0c20.3,-20.3 20.3,-53.3 0,-73.5c-10.1,-10.2 -23.4,-15.3 -36.7,-15.3z" fill="#444b54"></path><path d="M83,61h-16v-16c0,-1.7 -1.3,-3 -3,-3c-1.7,0 -3,1.3 -3,3v16h-16c-1.7,0 -3,1.3 -3,3c0,1.7 1.3,3 3,3h16v16c0,1.7 1.3,3 3,3c1.7,0 3,-1.3 3,-3v-16h16c1.7,0 3,-1.3 3,-3c0,-1.7 -1.3,-3 -3,-3z" fill="#59a997"></path></g></g></svg>